<svg xmlns="http://www.w3.org/2000/svg" viewBox="0 0 512 512" width="512" height="512" role="img" aria-label="HonesTea AI app icon">
  <rect width="512" height="512" rx="112" fill="#5b8a3a"></rect>
  <g transform="translate(96 96) scale(3.33)">
    
    <path d="M20 42 H72 L68 78 Q66 86 58 86 H34 Q26 86 24 78 Z" fill="none" stroke="#fbf6e9" stroke-width="4" stroke-linejoin="round"></path>
    
    <path d="M24 50 H68 L65 76 Q63.5 81 58 81 H34 Q28.5 81 27 76 Z" fill="#c2884a" fill-opacity="0.55"></path>
    
    <line x1="24" y1="50" x2="68" y2="50" stroke="#fbf6e9" stroke-width="2" stroke-linecap="round"></line>
    
    <path d="M72 50 Q84 52 84 60 Q84 68 72 70" fill="none" stroke="#fbf6e9" stroke-width="4" stroke-linejoin="round" stroke-linecap="round"></path>
    
    <path d="M44 30 Q40 22 46 14 Q56 18 52 30 Z" fill="#fbf6e9"></path>
    
    <path d="M58 34 Q60 28 56 22" fill="none" stroke="#fbf6e9" stroke-width="2.5" stroke-linecap="round"></path>
  </g>
</svg>